<svg width="58" height="58" viewBox="0 0 58 58" fill="none" xmlns="http://www.w3.org/2000/svg">
<path fill-rule="evenodd" clip-rule="evenodd" d="M29 53C42.2548 53 53 42.2548 53 29C53 15.7452 42.2548 5 29 5C15.7452 5 5 15.7452 5 29C5 42.2548 15.7452 53 29 53ZM29 58C45.0163 58 58 45.0163 58 29C58 12.9837 45.0163 0 29 0C12.9837 0 0 12.9837 0 29C0 45.0163 12.9837 58 29 58ZM29 12.5C30.3807 12.5 31.5 13.6193 31.5 15V26.5H38C39.3807 26.5 40.5 27.6193 40.5 29C40.5 30.3807 39.3807 31.5 38 31.5H29C27.6193 31.5 26.5 30.3807 26.5 29V15C26.5 13.6193 27.6193 12.5 29 12.5ZM40.5 22C40.5 23.3807 39.3807 24.5 38 24.5H36C34.6193 24.5 33.5 23.3807 33.5 22C33.5 20.6193 34.6193 19.5 36 19.5H38C39.3807 19.5 40.5 20.6193 40.5 22ZM38 17.5C39.3807 17.5 40.5 16.3807 40.5 15C40.5 13.6193 39.3807 12.5 38 12.5H36C34.6193 12.5 33.5 13.6193 33.5 15C33.5 16.3807 34.6193 17.5 36 17.5H38Z" fill="#98B7E3"/>
</svg>
