<svg width="30" height="30" viewBox="0 0 30 30" fill="none" xmlns="http://www.w3.org/2000/svg">
<g id="Arrow - Up">
<g id="Iconly/Light-Outline/Arrow---Up">
<g id="Arrow---Up">
<path id="Combined-Shape" d="M14.6571 25C14.1825 25 13.7903 24.6473 13.7282 24.1897L13.7196 24.0625L13.7204 7.5825L7.79095 13.5362C7.42563 13.9031 6.83204 13.9044 6.46513 13.5391C6.13158 13.207 6.1002 12.6862 6.37173 12.3186L6.46228 12.2133L13.9923 4.65077C14.0404 4.6024 14.0926 4.5604 14.1476 4.52474C14.1642 4.51467 14.1811 4.50442 14.1984 4.49471C14.2132 4.48577 14.2286 4.47769 14.2442 4.47007C14.2668 4.45949 14.2902 4.44914 14.314 4.43976C14.3324 4.43213 14.3503 4.42576 14.3684 4.41995C14.3907 4.41304 14.4146 4.40633 14.4388 4.40056C14.4557 4.39627 14.4719 4.39287 14.4883 4.3899C14.5125 4.38573 14.5377 4.38218 14.5631 4.37965C14.5825 4.37747 14.6017 4.37615 14.621 4.37542C14.6326 4.37524 14.6448 4.375 14.6571 4.375L14.6934 4.37547C14.7118 4.37619 14.7302 4.37745 14.7486 4.37924L14.6571 4.375C14.7163 4.375 14.7742 4.38048 14.8303 4.39096C14.8437 4.39339 14.8574 4.39629 14.8711 4.39949C14.8994 4.40615 14.9265 4.41385 14.9532 4.42271C14.9664 4.42706 14.9806 4.43213 14.9946 4.43754C15.0228 4.4485 15.0497 4.46041 15.0759 4.47351C15.0882 4.47959 15.1011 4.48641 15.1139 4.49354C15.1347 4.50526 15.1545 4.51733 15.1738 4.53009C15.1874 4.53909 15.2016 4.54907 15.2156 4.55948L15.2264 4.56759C15.2594 4.59285 15.2907 4.62025 15.32 4.64959L15.3209 4.65071L22.8521 12.2132C23.2175 12.5801 23.2163 13.1737 22.8494 13.539C22.5159 13.8712 21.995 13.9004 21.6285 13.6273L21.5236 13.5363L15.5954 7.585L15.5946 24.0625C15.5946 24.5803 15.1749 25 14.6571 25Z" fill="#050608"/>
</g>
</g>
</g>
</svg>
